<svg xmlns="http://www.w3.org/2000/svg" viewBox="0 0 128 128" fill="none">
  <circle cx="64" cy="64" r="60" fill="#25D366"/>
  <path d="M63.8 24C43.4 24 26.8 40.2 26.8 60.4c0 6.5 1.8 12.8 5.1 18.3l-5.8 21 21.6-5.6a37.4 37.4 0 0 0 16.1 3.6c20.4 0 37-16.2 37-36.3C100.8 40.2 84.2 24 63.8 24Z" fill="white"/>
  <path d="M79.4 70.8c-.8-.4-4.8-2.4-5.5-2.7-.7-.3-1.2-.4-1.8.4-.5.8-2.1 2.7-2.6 3.2-.5.6-.9.7-1.7.2-.8-.4-3.3-1.2-6.4-4-2.3-2-3.9-4.5-4.4-5.3-.5-.8-.1-1.2.3-1.6.4-.4.8-.9 1.2-1.4.4-.5.5-.8.8-1.4.2-.5.1-1-.1-1.4-.2-.4-1.8-4.4-2.4-6-.6-1.6-1.3-1.4-1.8-1.4h-1.5c-.5 0-1.4.2-2.2 1-.8.8-3 2.9-3 7.1s3.1 8.3 3.5 8.9c.4.6 6.1 9.7 15 13.2 8.9 3.5 8.9 2.3 10.5 2.2 1.6-.1 4.8-1.9 5.5-3.8.7-1.9.7-3.5.5-3.8-.2-.3-.7-.5-1.5-.9Z" fill="#25D366"/>
</svg>
